<svg width="225" height="226" viewBox="0 0 225 226" fill="none" xmlns="http://www.w3.org/2000/svg">
<path d="M216.897 83.7362C213.695 81.2107 204.762 81.1936 202.008 83.7078L201.915 132.264C205.574 135.477 214.281 134.349 216.805 132.292C219.329 130.235 220.1 86.2617 216.897 83.7362Z" fill="url(#paint0_radial_11_67)"/>
<path d="M23.5613 83.3676C19.6706 81.5278 12.7984 81.5147 8.9007 83.3396C5.00304 85.1645 3.0846 130.281 8.80813 131.895C14.5317 133.51 17.739 133.516 23.4687 131.923L23.5613 83.3676Z" fill="url(#paint1_radial_11_67)"/>
<path d="M116.368 186.382C82.4385 200.518 90.9264 194.121 93.6861 188.4C96.4459 182.68 58.4196 182.836 58.4196 182.836C58.4196 182.836 45.5637 197.47 49.9086 201.372C54.2536 205.274 87.2267 212.208 93.639 213.136C100.051 214.065 79.6403 226.381 109.21 216.373C138.779 206.364 122.949 219.147 135.559 213.216C148.169 207.285 175.658 207.338 177.043 201.614C178.429 195.891 169.519 183.048 169.519 183.048C169.519 183.048 146.609 184.837 135.603 190.084C124.598 195.33 150.298 172.247 116.368 186.382Z" fill="url(#paint2_radial_11_67)"/>
<path fill-rule="evenodd" clip-rule="evenodd" d="M92.2715 11.9172L92.2105 43.9078C91.5719 44.0305 90.9263 44.1497 90.2639 44.272C89.11 44.4851 87.9053 44.7076 86.5981 44.974C83.4118 45.6235 79.9677 46.4813 76.6871 48.0205C69.5298 51.3784 65.5118 54.7121 60.2746 59.0574C59.7101 59.5258 59.1314 60.006 58.5331 60.4992C52.6364 65.3598 47.5451 72.0982 45.016 75.6918C43.5908 77.7168 42.4632 79.8625 41.5451 82.0269C40.0121 85.6406 37.3419 92.1009 35.9639 96.4773C31.4467 110.824 30.5664 127.754 30.7502 142.031C30.8426 149.213 31.2071 155.818 31.5438 161.195C31.6158 162.345 31.6855 163.426 31.7507 164.438C31.7693 164.726 31.7876 165.009 31.8054 165.286C31.6726 165.155 31.5406 165.021 31.4098 164.884C29.0297 162.388 27.9154 159.874 27.918 158.5L28.0603 83.8622C30.0889 74.7124 31.8459 69.6275 35.9203 61.0332C40.5242 51.3218 43.4974 46.1607 50.4027 38.2802C57.4423 30.2464 62.0013 26.3053 71.1102 20.9037C75.9692 18.0223 78.8279 16.7482 84.2343 14.5989C87.4364 13.3259 89.6614 12.6705 92.2715 11.9172ZM20.2408 77.7785C22.0906 70.3216 24.0743 65.0111 27.7879 57.1778C32.6234 46.9781 36.0165 41.0418 43.6337 32.3488C51.2373 23.6715 56.5163 19.0945 66.5197 13.1625C71.9158 9.96252 75.2364 8.49086 80.9095 6.23555C84.6072 4.76553 87.5555 3.90962 90.6028 3.02495C92.1433 2.57773 93.7091 2.12316 95.4099 1.5782L95.7916 1.45587L96.189 1.40295C105.652 0.142792 106.918 0.143335 113.807 0.251231C119.807 0.345187 121.339 0.38494 129.153 1.45474C136.939 2.23506 141.076 3.41349 148.213 6.38474C153.502 8.58697 156.761 10.4221 161.474 13.4015C171.143 19.5141 176.974 23.5832 184.683 32.6568C192.077 41.3596 195.285 47.3888 199.566 57.6903C201.598 62.578 203.314 68.9425 204.501 73.9225C204.821 75.2619 205.106 76.519 205.353 77.6433C206.643 77.4272 207.986 77.3296 209.293 77.3321C211.078 77.3355 212.933 77.5258 214.651 77.9356C216.301 78.3291 218.165 79.0052 219.684 80.2028C220.929 81.1844 221.462 82.5428 221.675 83.1219C221.962 83.9024 222.172 84.7678 222.334 85.6077C222.663 87.3061 222.902 89.4378 223.076 91.7624C223.428 96.4435 223.553 102.378 223.498 108.232C223.444 114.091 223.208 119.977 222.818 124.573C222.625 126.856 222.386 128.916 222.092 130.527C221.947 131.321 221.767 132.127 221.531 132.843C221.413 133.201 221.25 133.633 221.021 134.071C220.821 134.45 220.404 135.164 219.647 135.78C218.323 136.86 216.623 137.524 215.144 137.94C213.567 138.382 211.788 138.666 209.995 138.749C208.907 138.8 207.677 138.782 206.403 138.635L206.365 158.84C206.36 161.438 205.523 164.177 204.457 166.607C203.359 169.109 201.862 171.636 200.195 173.899C198.536 176.149 196.608 178.274 194.586 179.886C193.029 181.128 190.948 182.443 188.594 182.843C184.934 184.862 180.406 185.976 176.983 186.607C177.251 187.089 177.52 187.588 177.788 188.099C178.875 190.177 179.988 192.576 180.739 194.932C181.439 197.128 182.065 199.995 181.417 202.673C180.832 205.088 179.052 206.539 177.734 207.348C176.342 208.202 174.68 208.826 173.046 209.317C169.76 210.305 165.52 211.061 161.254 211.776C160.466 211.908 159.675 212.038 158.881 212.17C155.254 212.769 151.581 213.377 148.091 214.11C143.807 215.01 140.14 216.034 137.474 217.288C135.822 218.065 134.434 218.634 133.255 218.971C132.157 219.285 130.655 219.577 129.079 219.141C127.298 218.648 126.325 217.484 125.891 216.901C125.608 216.89 125.161 216.897 124.498 216.966C122.136 217.215 117.962 218.161 110.652 220.635C103.297 223.125 98.5769 224.4 95.6589 224.697C94.891 224.775 94.0807 224.805 93.2871 224.716C92.532 224.632 91.4479 224.404 90.4204 223.693C89.2381 222.876 88.4741 221.654 88.2352 220.288C88.0289 219.107 88.2616 218.104 88.4437 217.519C88.5156 217.287 88.6006 217.059 88.6929 216.838C83.9695 215.939 76.8571 214.429 69.9328 212.741C65.0944 211.562 60.2507 210.272 56.3049 209.013C54.3367 208.385 52.5218 207.742 51.013 207.102C49.647 206.522 48.0459 205.747 46.9019 204.72C43.6692 201.817 44.4409 197.651 45.1065 195.5C45.8834 192.989 47.3472 190.384 48.7518 188.204C49.5403 186.98 50.3661 185.805 51.1471 184.746C50.2721 184.381 49.3309 183.983 48.3504 183.561C44.1462 181.753 38.9784 179.402 35.2606 177.249C33.4084 176.977 31.6691 176.216 30.2089 175.363C28.3115 174.256 26.4853 172.761 24.8966 171.095C21.9042 167.957 18.9089 163.293 18.918 158.483L18.9582 137.447C18.0159 137.557 17.0792 137.614 16.1275 137.612C13.324 137.606 10.652 137.091 7.58665 136.226C5.87144 135.743 4.78231 134.59 4.16016 133.718C3.52116 132.823 3.08147 131.82 2.76216 130.909C2.12011 129.076 1.69256 126.811 1.39504 124.446C0.792738 119.657 0.619395 113.567 0.747504 107.6C0.875934 101.618 1.3116 95.5714 1.98145 90.8387C2.31354 88.4923 2.72212 86.3299 3.22508 84.6163C3.4731 83.7714 3.7895 82.8759 4.21186 82.073C4.53668 81.4555 5.35125 80.0327 6.99261 79.2642C9.73974 77.978 13.1493 77.4735 16.2422 77.4794C17.5437 77.4819 18.9009 77.5749 20.2408 77.7785ZM18.9755 128.354L19.0549 86.7025C18.2046 86.5637 17.2463 86.4813 16.225 86.4794C14.5481 86.4762 13.0401 86.6905 11.901 87.0169C11.8879 87.0596 11.8745 87.1043 11.8608 87.1511C11.5351 88.2605 11.1991 89.9348 10.8926 92.0999C10.2854 96.3903 9.86838 102.066 9.74543 107.793C9.62216 113.535 9.79877 119.141 10.3247 123.323C10.5874 125.411 10.9126 126.935 11.241 127.89C13.2578 128.401 14.7471 128.609 16.1447 128.612C17.0169 128.614 17.9252 128.535 18.9755 128.354ZM12.1771 86.2629C12.2141 86.1925 12.2121 86.2132 12.163 86.2914C12.1688 86.2791 12.1735 86.2697 12.1771 86.2629ZM41.1067 170.207C44.1822 171.867 48.2314 173.713 51.9063 175.294C54.1559 176.261 56.1967 177.1 57.6752 177.697C58.3297 177.962 58.8727 178.178 59.2734 178.337C59.5015 178.338 59.771 178.339 60.0782 178.341C61.1308 178.348 62.6275 178.364 64.4136 178.402C67.9774 178.478 72.7301 178.639 77.4189 178.985C82.0398 179.326 86.8556 179.863 90.4257 180.751C92.1181 181.171 94.0566 181.791 95.5445 182.833C96.3099 183.369 97.3371 184.278 97.9153 185.705C98.3188 186.7 98.4096 187.712 98.2656 188.663C101.991 187.361 107.267 185.299 114.638 182.228C118.97 180.424 122.455 179.168 125.25 178.371C127.978 177.593 130.336 177.165 132.307 177.238C134.263 177.311 136.838 177.953 138.315 180.399C139.033 181.588 139.236 182.817 139.229 183.867C144.603 182.146 150.819 180.956 155.998 180.152C159.636 179.587 162.916 179.19 165.286 178.935C166.473 178.808 167.435 178.715 168.104 178.654C168.308 178.635 168.485 178.62 168.633 178.607C168.727 178.598 168.81 178.591 168.881 178.585C168.971 178.578 169.041 178.572 169.089 178.568L169.146 178.564L169.161 178.562L169.166 178.562L169.168 178.562C169.168 178.562 169.169 178.562 169.519 183.048L169.169 178.562L169.204 178.559L169.236 178.557L169.237 178.557L169.24 178.557L169.251 178.556L169.325 178.551C169.395 178.546 169.505 178.537 169.651 178.525C169.943 178.501 170.377 178.462 170.921 178.402C172.013 178.284 173.53 178.088 175.22 177.78C177.82 177.307 180.507 176.625 182.672 175.718L182.708 156.963C179.995 158.731 176.391 160.4 171.483 162.065C169.186 162.844 166.861 163.342 164.603 163.677L144.408 166.676C144.235 167.026 144.037 167.394 143.812 167.772C142.542 169.905 140.274 172.561 136.484 173.93C133.337 175.068 129.163 175.681 124.884 175.61C120.586 175.538 115.819 174.77 111.564 172.839C107.642 171.058 103.599 167.897 103.609 163.01C103.618 158.217 107.553 154.966 111.442 153.031C115.774 150.875 120.678 150.073 125.044 150.041C129.38 150.01 133.62 150.736 136.719 152.034C140.097 153.449 142.262 155.712 143.563 157.582C143.589 157.619 143.614 157.655 143.639 157.691L163.281 154.775C165.156 154.497 166.932 154.105 168.592 153.542C175.736 151.119 178.648 149.074 180.063 147.591C180.751 146.87 181.201 146.161 181.634 145.322C181.835 144.934 182.015 144.552 182.234 144.088C182.272 144.007 182.311 143.924 182.352 143.838C182.528 143.467 182.726 143.051 182.951 142.613C184.555 134.623 184.951 130.622 185.061 124.6C185.19 117.488 184.775 108.358 182.907 98.989C181.72 93.0357 180.159 90.1084 177.161 84.4888C176.95 84.0932 176.732 83.6843 176.507 83.26C176.344 82.9546 176.185 82.655 176.029 82.361C172.03 74.8326 169.96 70.9348 164.193 65.6622C161.813 63.4864 159.506 62.0147 157.039 60.6361C156.304 60.2255 155.499 59.7951 154.651 59.3419C152.813 58.3594 150.775 57.27 148.822 56.0445C148.023 55.5429 146.537 54.9485 144.405 54.3714C142.356 53.8167 140.015 53.3571 137.724 52.9973C135.442 52.6388 133.276 52.3896 131.601 52.2433C130.762 52.1701 130.07 52.1248 129.565 52.1034C129.189 52.0875 129.018 52.0901 128.987 52.0889L128.826 52.1095L97.2248 52.0492C95.3744 52.4782 93.3797 52.849 91.5088 53.1968C90.4103 53.401 89.3545 53.5972 88.3957 53.7927C85.4242 54.3984 82.813 55.0877 80.5097 56.1683C74.4259 59.0226 71.2273 61.6725 65.9727 66.0255C65.4252 66.4791 64.8554 66.9512 64.2576 67.4439C59.3255 71.5095 54.7964 77.4325 52.3759 80.8717C51.3858 82.2786 50.5511 83.8425 49.8304 85.5415C48.2779 89.2015 45.777 95.2784 44.5484 99.1802C40.4695 112.135 39.5692 127.909 39.7494 141.915C39.839 148.874 40.1926 155.306 40.5262 160.633C40.5911 161.669 40.6562 162.675 40.7188 163.643C40.8802 166.138 41.0249 168.375 41.1067 170.207ZM133.053 43.3386C134.803 43.5055 136.912 43.7594 139.121 44.1063C141.61 44.4973 144.292 45.0168 146.757 45.6841C149.139 46.3291 151.66 47.1998 153.606 48.4212C155.307 49.4887 156.844 50.3081 158.51 51.1965C159.428 51.6856 160.384 52.1956 161.429 52.7795C164.232 54.3458 167.187 56.2052 170.266 59.0199C177.194 65.3538 179.903 70.4605 183.858 77.9146C184.053 78.2821 184.251 78.6553 184.453 79.0347C184.696 79.4905 184.933 79.9341 185.164 80.368C188.161 85.9785 190.281 89.9468 191.733 97.2293C193.761 107.401 194.197 117.207 194.059 124.764C193.937 131.457 193.462 136.018 191.731 144.601L191.683 170.162C192.108 169.662 192.532 169.125 192.95 168.559C194.268 166.771 195.414 164.817 196.215 162.992C197.047 161.095 197.363 159.661 197.365 158.823L197.507 84.1281C197.494 84.0596 197.479 83.9827 197.462 83.8979C197.381 83.4786 197.259 82.8651 197.1 82.0987C196.784 80.5645 196.323 78.4251 195.747 76.0104C194.579 71.1144 192.997 65.3336 191.256 61.1443C187.224 51.4442 184.456 46.2889 177.825 38.4841C170.969 30.4154 166.009 26.9166 156.664 21.0088C152.241 18.2124 149.443 16.6457 144.753 14.6934C140.056 12.7375 137.042 11.7167 133.114 11.0434L133.053 43.3386ZM206.502 86.5816L206.42 129.523C207.208 129.706 208.265 129.82 209.576 129.759C210.733 129.705 211.833 129.521 212.712 129.274C212.896 129.223 213.058 129.172 213.198 129.124C213.211 129.057 213.224 128.986 213.238 128.91C213.457 127.713 213.667 125.98 213.85 123.813C214.215 119.506 214.445 113.855 214.499 108.148C214.552 102.436 214.427 96.7747 214.102 92.4362C213.937 90.2509 213.73 88.5168 213.498 87.319C213.471 87.1795 213.445 87.0541 213.421 86.942C213.196 86.8608 212.913 86.7735 212.563 86.6899C211.619 86.4648 210.469 86.3344 209.276 86.3321C208.251 86.3302 207.295 86.4229 206.502 86.5816ZM213.228 86.2283C213.229 86.2293 213.229 86.2303 213.23 86.2314C213.175 86.1201 213.181 86.0994 213.228 86.2283ZM124.053 43.1003L124.116 9.87C119.865 9.3472 118.203 9.32117 113.722 9.25101L113.414 9.24616C108.271 9.16543 106.769 9.14185 101.275 9.81978L101.212 43.0568L124.053 43.1003ZM136.259 162.845C136.232 162.805 136.204 162.764 136.175 162.722C135.592 161.884 134.671 160.934 133.242 160.336C131.534 159.62 128.561 159.016 125.109 159.041C121.686 159.066 118.226 159.708 115.451 161.089C114.008 161.807 113.21 162.46 112.822 162.9C112.79 162.936 112.763 162.969 112.738 162.999C112.744 163.006 112.751 163.013 112.757 163.02C113.105 163.4 113.861 163.998 115.284 164.643C118.124 165.932 121.601 166.554 125.034 166.611C128.486 166.669 131.53 166.151 133.425 165.466C134.679 165.013 135.51 164.124 136.078 163.169C136.144 163.059 136.204 162.951 136.259 162.845ZM112.583 163.229C112.58 163.239 112.577 163.244 112.577 163.244C112.577 163.243 112.578 163.238 112.583 163.229ZM167.231 187.781C166.926 187.812 166.598 187.846 166.249 187.884C163.98 188.128 160.844 188.507 157.379 189.045C150.281 190.147 142.39 191.833 137.54 194.146C136.747 194.523 135.954 194.856 135.195 195.075C134.575 195.254 133.33 195.561 131.944 195.224C131.144 195.029 130.242 194.604 129.487 193.801C128.741 193.008 128.39 192.112 128.24 191.38C127.98 190.105 128.262 188.993 128.387 188.537C128.554 187.93 128.824 187.251 129.074 186.667C128.668 186.765 128.217 186.883 127.719 187.026C125.382 187.692 122.249 188.807 118.099 190.536C109.596 194.079 103.635 196.384 99.5331 197.739C97.4908 198.413 95.7919 198.892 94.4077 199.159C93.2324 199.387 91.5353 199.629 89.9421 199.138C88.9943 198.845 87.8265 198.211 87.0176 196.949C86.2282 195.717 86.1467 194.455 86.2211 193.609C86.3486 192.159 87.0329 190.895 87.3556 190.31C87.5184 190.016 87.7027 189.704 87.8891 189.397C85.1125 188.75 81.1029 188.282 76.7567 187.961C72.2839 187.631 67.7025 187.474 64.2227 187.4C62.7524 187.369 61.4854 187.353 60.5145 187.344C60.3546 187.542 60.1835 187.755 60.0034 187.981C58.9187 189.348 57.5449 191.173 56.3178 193.078C55.0515 195.044 54.116 196.829 53.7044 198.16C53.6764 198.25 53.6523 198.333 53.6313 198.409C53.8634 198.523 54.1596 198.66 54.5312 198.818C55.6824 199.307 57.2065 199.853 59.0407 200.439C62.6998 201.606 67.3148 202.84 72.0643 203.997C81.5988 206.322 91.2855 208.249 94.2838 208.683C95.7773 208.899 98.4428 209.776 99.2707 212.743C99.465 213.439 99.5021 214.108 99.4533 214.715C101.521 214.144 104.236 213.305 107.767 212.11C115.243 209.58 120.178 208.371 123.558 208.016C126.905 207.664 129.708 208.047 131.782 209.946C131.787 209.95 131.791 209.954 131.796 209.958C132.268 209.769 132.874 209.506 133.644 209.144C137.283 207.433 141.781 206.239 146.241 205.302C149.94 204.525 153.849 203.879 157.481 203.279C158.257 203.15 159.021 203.024 159.767 202.899C164.123 202.17 167.802 201.496 170.455 200.698C171.481 200.39 172.198 200.107 172.668 199.873C172.663 199.826 172.658 199.777 172.652 199.725C172.584 199.181 172.428 198.492 172.165 197.666C171.635 196.004 170.78 194.119 169.813 192.271C168.919 190.561 167.981 188.982 167.231 187.781ZM173.216 199.545C173.217 199.546 173.206 199.556 173.182 199.574C173.203 199.554 173.216 199.545 173.216 199.545ZM130.528 210.378C130.529 210.377 130.542 210.374 130.567 210.372C130.54 210.377 130.528 210.378 130.528 210.378ZM53.5074 199.117C53.5038 199.119 53.5 199.088 53.5069 199.013C53.5145 199.076 53.511 199.114 53.5074 199.117ZM130.242 183.656C130.244 183.654 130.242 183.68 130.231 183.737C130.234 183.686 130.24 183.657 130.242 183.656ZM132.698 186.428C132.627 186.448 132.639 186.439 132.717 186.422C132.71 186.425 132.703 186.426 132.698 186.428ZM90.6396 213.31C90.644 213.307 90.6308 213.349 90.587 213.442C90.6134 213.358 90.6352 213.312 90.6396 213.31ZM126.304 216.948C126.303 216.948 126.289 216.946 126.265 216.938C126.292 216.943 126.304 216.947 126.304 216.948ZM65.9672 85.0757C60.879 89.877 57.2556 96.9714 54.4651 108.701L45.7095 106.618C48.6921 94.0809 52.888 85.0431 59.7905 78.5299C66.6657 72.0423 75.6964 68.5672 87.2072 66.0065L89.1615 74.7918C78.2139 77.2272 71.0826 80.2488 65.9672 85.0757Z" fill="#272A39"/>
<path fill-rule="evenodd" clip-rule="evenodd" d="M92.9732 11.9531V43.9438C92.3348 44.0677 91.6895 44.1881 91.0274 44.3117C89.8739 44.527 88.6696 44.7517 87.3629 45.0206C84.1778 45.6762 80.7354 46.5406 77.4577 48.086C70.3068 51.4576 66.2952 54.799 61.0663 59.1542C60.5027 59.6237 59.9249 60.1049 59.3275 60.5993C53.4401 65.4712 48.3616 72.2193 45.8394 75.8177C44.418 77.8454 43.2946 79.9932 42.3806 82.1594C40.8545 85.776 38.1966 92.2414 36.827 96.6204C32.3371 110.976 31.4891 127.907 31.7001 142.184C31.8062 149.366 32.1833 155.97 32.5303 161.347C32.6044 162.496 32.6762 163.577 32.7434 164.589C32.7625 164.877 32.7813 165.16 32.7997 165.437C32.6666 165.306 32.5344 165.172 32.4033 165.035C30.0184 162.544 28.8994 160.032 28.8994 158.658V84.0203C30.9105 74.8668 32.6578 69.7785 36.7158 61.1764C41.3012 51.4563 44.2645 46.2896 51.1548 38.3958C58.1791 30.3487 62.7305 26.3989 71.8291 20.9799C76.6826 18.0893 79.5389 16.8097 84.9412 14.6501C88.1408 13.371 90.3646 12.7114 92.9732 11.9531ZM21.0682 77.9516C22.9038 70.4912 24.8774 65.1769 28.5761 57.3365C33.392 47.1276 36.7739 41.1849 44.3745 32.4774C51.9615 23.7856 57.2318 19.1985 67.2238 13.2474C72.6139 10.0372 75.9316 8.55924 81.6004 6.29311C85.2953 4.81605 88.2419 3.95452 91.2876 3.06403C92.8272 2.61388 94.3922 2.15633 96.0919 1.60812L96.4734 1.48507L96.8707 1.43139C106.331 0.153194 107.597 0.151322 114.487 0.246083C120.486 0.3286 122.019 0.365432 129.835 1.42033C137.623 2.1858 141.761 3.35634 148.904 6.31398C154.197 8.50612 157.46 10.335 162.178 13.3054C171.859 19.3996 177.698 23.4576 185.425 32.5165C192.835 41.2051 196.054 47.2283 200.355 57.5216C202.396 62.4054 204.124 68.7666 205.321 73.7443C205.643 75.0831 205.931 76.3396 206.18 77.4635C207.47 77.245 208.812 77.1448 210.119 77.1448C211.904 77.1448 213.76 77.3315 215.479 77.738C217.129 78.1284 218.995 78.8009 220.516 79.9956C221.762 80.9749 222.299 82.3323 222.513 82.9109C222.801 83.6909 223.012 84.5558 223.176 85.3955C223.508 87.0932 223.751 89.2245 223.93 91.5487C224.29 96.2291 224.427 102.163 224.383 108.017C224.34 113.876 224.115 119.763 223.735 124.359C223.546 126.643 223.31 128.704 223.019 130.315C222.876 131.109 222.698 131.916 222.463 132.633C222.346 132.99 222.184 133.423 221.955 133.861C221.756 134.241 221.341 134.955 220.585 135.573C219.262 136.655 217.564 137.323 216.086 137.741C214.509 138.187 212.731 138.473 210.939 138.56C209.85 138.613 208.62 138.598 207.346 138.453V158.658C207.346 161.256 206.514 163.997 205.453 166.429C204.36 168.933 202.869 171.463 201.205 173.729C199.551 175.982 197.626 178.111 195.608 179.727C194.053 180.971 191.974 182.291 189.622 182.695C185.965 184.721 181.44 185.843 178.018 186.481C178.286 186.962 178.557 187.461 178.825 187.971C179.917 190.048 181.034 192.445 181.79 194.799C182.494 196.993 183.125 199.86 182.482 202.539C181.902 204.955 180.124 206.41 178.808 207.221C177.418 208.078 175.757 208.704 174.124 209.199C170.84 210.193 166.601 210.957 162.336 211.68C161.549 211.813 160.758 211.945 159.964 212.078C156.338 212.685 152.667 213.299 149.178 214.039C144.896 214.947 141.231 215.979 138.567 217.238C136.917 218.018 135.53 218.589 134.352 218.928C133.254 219.244 131.752 219.539 130.176 219.106C128.394 218.616 127.418 217.455 126.983 216.873C126.7 216.862 126.253 216.87 125.591 216.94C123.229 217.193 119.056 218.148 111.752 220.635C104.401 223.139 99.6837 224.424 96.7663 224.726C95.9986 224.805 95.1884 224.837 94.3945 224.75C93.6393 224.667 92.5548 224.441 91.5259 223.732C90.3421 222.917 89.5757 221.696 89.3342 220.331C89.1256 219.151 89.3564 218.147 89.5374 217.561C89.6089 217.33 89.6935 217.102 89.7854 216.881C85.0602 215.99 77.945 214.494 71.0175 212.819C66.1768 211.649 61.3306 210.368 57.3825 209.117C55.4131 208.493 53.5969 207.854 52.087 207.216C50.7199 206.638 49.1173 205.867 47.9713 204.842C44.7331 201.945 45.4968 197.778 46.1584 195.625C46.9304 193.113 48.3893 190.506 49.7897 188.323C50.5759 187.097 51.3994 185.92 52.1784 184.86C51.3028 184.496 50.3608 184.1 49.3795 183.681C45.1718 181.88 39.9995 179.539 36.2777 177.393C34.425 177.124 32.6842 176.367 31.2224 175.517C29.3228 174.413 27.4938 172.922 25.9019 171.259C22.9036 168.127 19.8994 163.469 19.8994 158.658V137.623C18.9573 137.734 18.0207 137.793 17.0691 137.793C14.2655 137.793 11.5925 137.282 8.52555 136.424C6.80942 135.943 5.71809 134.792 5.09428 133.922C4.45358 133.027 4.01197 132.026 3.69093 131.115C3.04539 129.284 2.61352 127.02 2.3115 124.655C1.70006 119.867 1.51511 113.778 1.63184 107.81C1.74886 101.828 2.173 95.7806 2.83382 91.0466C3.16144 88.6995 3.5659 86.5363 4.06559 84.8219C4.312 83.9764 4.62669 83.0804 5.04752 82.2766C5.37116 81.6585 6.18302 80.2341 7.82291 79.4625C10.5676 78.1711 13.9762 77.6601 17.0691 77.6601C18.3705 77.6601 19.7279 77.7506 21.0682 77.9516ZM19.8994 128.529V86.8779C19.0488 86.7407 18.0903 86.6601 17.0691 86.6601C15.3922 86.6601 13.8845 86.8773 12.746 87.2059C12.733 87.2486 12.7197 87.2934 12.7061 87.3402C12.3826 88.4502 12.0497 90.1252 11.7474 92.2908C11.1484 96.5823 10.7421 102.259 10.6301 107.986C10.5178 113.728 10.7051 119.334 11.239 123.515C11.5056 125.602 11.8338 127.126 12.164 128.08C14.1818 128.587 15.6715 128.793 17.0691 128.793C17.9413 128.793 18.8494 128.713 19.8994 128.529ZM13.0207 86.4513C13.0576 86.3809 13.0556 86.4016 13.0067 86.4799C13.0125 86.4676 13.0172 86.4581 13.0207 86.4513ZM42.1103 170.34C45.189 171.994 49.2417 173.833 52.9196 175.406C55.171 176.369 57.2134 177.205 58.693 177.799C59.3481 178.062 59.8915 178.277 60.2925 178.435C60.5205 178.436 60.7901 178.436 61.0973 178.438C62.1499 178.443 63.6466 178.456 65.4328 178.491C68.9967 178.56 73.7497 178.712 78.4392 179.049C83.0608 179.381 87.8775 179.909 91.4494 180.79C93.1425 181.207 95.0822 181.823 96.5721 182.862C97.3385 183.397 98.3675 184.304 98.9484 185.73C99.3538 186.724 99.4465 187.736 99.3043 188.687C103.027 187.378 108.3 185.306 115.664 182.221C119.993 180.408 123.476 179.146 126.269 178.343C128.995 177.56 131.353 177.128 133.324 177.197C135.28 177.266 137.856 177.904 139.338 180.346C140.058 181.534 140.264 182.763 140.258 183.813C145.629 182.082 151.843 180.88 157.02 180.066C160.657 179.494 163.936 179.091 166.306 178.832C167.492 178.702 168.454 178.607 169.124 178.545C169.327 178.526 169.504 178.51 169.652 178.497C169.747 178.488 169.83 178.481 169.9 178.475C169.99 178.467 170.06 178.461 170.109 178.457L170.165 178.453L170.181 178.451L170.186 178.451L170.187 178.451C170.188 178.451 170.188 178.451 170.547 182.936L170.188 178.451L170.224 178.448L170.256 178.446L170.257 178.446L170.259 178.446L170.27 178.445L170.345 178.439C170.415 178.434 170.525 178.426 170.67 178.413C170.962 178.389 171.396 178.348 171.94 178.288C173.032 178.167 174.548 177.968 176.238 177.658C178.837 177.179 181.522 176.492 183.686 175.581V156.826C180.977 158.599 177.375 160.276 172.471 161.95C170.175 162.733 167.851 163.236 165.593 163.575L145.405 166.612C145.232 166.962 145.035 167.331 144.811 167.709C143.545 169.845 141.282 172.505 137.495 173.881C134.349 175.025 130.177 175.647 125.897 175.583C121.599 175.52 116.831 174.76 112.573 172.837C108.647 171.065 104.599 167.911 104.599 163.024C104.599 158.231 108.527 154.972 112.412 153.03C116.741 150.866 121.643 150.055 126.009 150.015C130.345 149.975 134.587 150.693 137.688 151.985C141.068 153.393 143.238 155.652 144.543 157.52C144.568 157.557 144.593 157.593 144.618 157.629L164.255 154.675C166.129 154.393 167.905 153.998 169.564 153.432C176.703 150.995 179.611 148.945 181.023 147.459C181.71 146.737 182.159 146.027 182.59 145.187C182.79 144.799 182.97 144.416 183.188 143.952C183.226 143.871 183.265 143.788 183.305 143.701C183.48 143.33 183.678 142.914 183.902 142.476C185.491 134.482 185.879 130.481 185.977 124.459C186.093 117.347 185.66 108.217 183.774 98.8519C182.576 92.9009 181.009 89.9766 178.001 84.3627C177.79 83.9675 177.571 83.559 177.344 83.1351C177.181 82.8301 177.022 82.5308 176.865 82.2371C172.852 74.7163 170.774 70.8225 164.997 65.5608C162.613 63.3896 160.303 61.9223 157.834 60.5484C157.098 60.1392 156.292 59.7103 155.443 59.2587C153.603 58.2798 151.563 57.1943 149.608 55.9725C148.808 55.4724 147.321 54.8809 145.188 54.3078C143.138 53.757 140.796 53.3019 138.504 52.9465C136.221 52.5923 134.055 52.3472 132.379 52.2042C131.54 52.1325 130.849 52.0885 130.343 52.0681C129.967 52.053 129.796 52.0558 129.766 52.0547L129.604 52.0756H98.003C96.1535 52.5081 94.1594 52.8827 92.2892 53.234C91.1911 53.4403 90.1357 53.6386 89.1773 53.8359C86.2069 54.4472 83.597 55.1416 81.2959 56.2266C75.2175 59.0925 72.0239 61.7484 66.7777 66.1115C66.231 66.5661 65.6621 67.0393 65.0653 67.5331C60.1409 71.6081 55.6231 77.5397 53.2092 80.9835C52.2217 82.3923 51.3901 83.9578 50.6726 85.6582C49.1271 89.3211 46.6377 95.4028 45.4166 99.307C41.3624 112.269 40.4922 128.045 40.6991 142.051C40.8019 149.01 41.1678 155.441 41.5116 160.767C41.5785 161.803 41.6455 162.809 41.7099 163.776C41.8761 166.272 42.025 168.508 42.1103 170.34ZM133.814 43.2967C135.565 43.4602 137.675 43.7101 139.884 44.0528C142.374 44.4391 145.057 44.9535 147.523 45.6161C149.907 46.2565 152.428 47.1224 154.377 48.3401C156.08 49.4043 157.619 50.2208 159.287 51.106C160.205 51.5934 161.163 52.1016 162.209 52.6834C165.015 54.2444 167.973 56.0982 171.057 58.907C177.997 65.2277 180.717 70.3292 184.686 77.7758C184.882 78.1429 185.08 78.5157 185.283 78.8947C185.526 79.35 185.764 79.7932 185.996 80.2266C189.004 85.8314 191.131 89.7957 192.597 97.0754C194.645 107.243 195.099 117.048 194.976 124.605C194.867 131.299 194.4 135.86 192.686 144.447V170.008C193.11 169.507 193.534 168.97 193.95 168.402C195.265 166.612 196.407 164.656 197.204 162.829C198.033 160.931 198.346 159.496 198.346 158.658V83.9632C198.333 83.8947 198.318 83.8179 198.301 83.7331C198.219 83.314 198.096 82.7007 197.936 81.9346C197.616 80.401 197.151 78.2625 196.571 75.8489C195.394 70.9551 193.8 65.1774 192.051 60.9913C188.001 51.299 185.223 46.149 178.577 38.3568C171.706 30.3012 166.74 26.8119 157.383 20.9219C152.955 18.134 150.153 16.5726 145.46 14.6292C140.759 12.6823 137.743 11.6672 133.814 11.0015V43.2967ZM207.346 86.3995V129.341C208.134 129.523 209.191 129.635 210.502 129.571C211.659 129.515 212.759 129.329 213.637 129.081C213.821 129.028 213.983 128.977 214.123 128.929C214.136 128.862 214.149 128.791 214.163 128.716C214.379 127.518 214.586 125.785 214.765 123.617C215.122 119.309 215.341 113.658 215.384 107.951C215.426 102.238 215.291 96.5776 214.957 92.2397C214.788 90.0547 214.578 88.321 214.344 87.1236C214.316 86.9842 214.29 86.8588 214.265 86.7468C214.041 86.666 213.757 86.5792 213.407 86.4963C212.463 86.273 211.312 86.1448 210.119 86.1448C209.095 86.1448 208.138 86.2393 207.346 86.3995ZM214.072 86.0334C214.072 86.0345 214.072 86.0355 214.073 86.0365C214.018 85.9253 214.024 85.9046 214.072 86.0334ZM124.814 43.0756V9.84518C120.562 9.33048 118.899 9.30762 114.419 9.246L114.11 9.24175C108.967 9.17082 107.465 9.1501 101.973 9.83851V43.0756H124.814ZM137.249 162.797C137.222 162.757 137.194 162.716 137.165 162.674C136.58 161.837 135.657 160.889 134.227 160.293C132.517 159.581 129.543 158.982 126.091 159.014C122.669 159.046 119.209 159.694 116.437 161.08C114.995 161.801 114.198 162.456 113.812 162.896C113.78 162.932 113.752 162.965 113.728 162.996C113.734 163.002 113.74 163.009 113.747 163.016C114.095 163.396 114.853 163.992 116.276 164.635C119.119 165.918 122.597 166.533 126.031 166.584C129.483 166.635 132.526 166.112 134.42 165.423C135.673 164.968 136.502 164.077 137.068 163.121C137.134 163.011 137.194 162.903 137.249 162.797ZM113.573 163.226C113.57 163.236 113.567 163.241 113.567 163.24C113.567 163.24 113.569 163.235 113.573 163.226ZM168.268 187.673C167.963 187.705 167.635 187.74 167.286 187.778C165.017 188.027 161.882 188.412 158.418 188.956C151.323 190.072 143.434 191.773 138.589 194.095C137.797 194.474 137.004 194.808 136.245 195.028C135.626 195.209 134.381 195.518 132.995 195.183C132.195 194.99 131.292 194.567 130.536 193.766C129.788 192.974 129.435 192.079 129.284 191.347C129.021 190.073 129.301 188.96 129.426 188.504C129.592 187.896 129.86 187.217 130.109 186.633C129.703 186.731 129.253 186.85 128.755 186.993C126.419 187.664 123.288 188.786 119.141 190.523C110.645 194.081 104.688 196.398 100.589 197.76C98.5481 198.439 96.8501 198.92 95.4664 199.191C94.2916 199.42 92.5949 199.666 91.0008 199.177C90.0525 198.887 88.8835 198.255 88.0721 196.994C87.2804 195.764 87.1964 194.502 87.2692 193.656C87.394 192.206 88.0758 190.94 88.3975 190.355C88.5597 190.06 88.7435 189.748 88.9292 189.441C86.1514 188.8 82.1409 188.338 77.7941 188.026C73.3207 187.705 68.739 187.556 65.2591 187.489C63.7887 187.461 62.5216 187.447 61.5508 187.441C61.3913 187.638 61.2206 187.851 61.0409 188.079C59.9588 189.447 58.5885 191.275 57.365 193.182C56.1025 195.15 55.1704 196.938 54.7613 198.269C54.7335 198.359 54.7095 198.442 54.6887 198.519C54.921 198.632 55.2175 198.768 55.5894 198.925C56.7415 199.412 58.2666 199.956 60.1019 200.538C63.7633 201.698 68.3806 202.923 73.1323 204.071C82.6712 206.377 92.3616 208.286 95.3607 208.714C96.8545 208.928 99.5218 209.8 100.355 212.765C100.551 213.461 100.589 214.13 100.542 214.737C102.608 214.162 105.322 213.318 108.85 212.116C116.321 209.571 121.255 208.353 124.633 207.992C127.98 207.633 130.783 208.011 132.861 209.906C132.866 209.91 132.871 209.914 132.875 209.918C133.347 209.729 133.952 209.464 134.722 209.101C138.357 207.382 142.853 206.181 147.311 205.235C151.009 204.451 154.917 203.797 158.548 203.19C159.324 203.06 160.087 202.933 160.833 202.806C165.187 202.069 168.865 201.387 171.516 200.585C172.542 200.274 173.259 199.99 173.728 199.756C173.723 199.709 173.718 199.659 173.711 199.607C173.643 199.063 173.485 198.375 173.22 197.549C172.687 195.888 171.829 194.005 170.859 192.159C169.961 190.451 169.02 188.873 168.268 187.673ZM174.275 199.427C174.276 199.427 174.266 199.437 174.241 199.455C174.262 199.435 174.275 199.426 174.275 199.427ZM131.608 210.34C131.609 210.34 131.622 210.337 131.647 210.334C131.62 210.339 131.608 210.341 131.608 210.34ZM54.5662 199.226C54.5625 199.229 54.5587 199.197 54.5654 199.122C54.5731 199.186 54.5698 199.223 54.5662 199.226ZM131.271 183.619C131.273 183.617 131.271 183.643 131.26 183.701C131.263 183.649 131.269 183.62 131.271 183.619ZM133.732 186.386C133.662 186.407 133.673 186.397 133.751 186.381C133.744 186.383 133.738 186.385 133.732 186.386ZM91.7253 213.348C91.7298 213.346 91.7166 213.388 91.6729 213.481C91.6992 213.397 91.7209 213.351 91.7253 213.348ZM127.396 216.918C127.396 216.919 127.382 216.916 127.358 216.908C127.385 216.914 127.397 216.918 127.396 216.918ZM66.8085 85.1616C61.7294 89.9726 58.1196 97.0739 55.3515 108.809L46.5919 106.743C49.5506 94.1997 53.7293 85.1539 60.6193 78.6276C67.4821 72.1269 76.5061 68.6346 88.012 66.052L89.9831 74.8335C79.0402 77.2897 71.9146 80.3249 66.8085 85.1616Z" fill="#272A39"/>
<path d="M37.6855 172.997C44.5738 177.201 59.4473 182.936 59.4473 182.936C59.4473 182.936 97.4732 182.707 94.7244 188.433C91.9755 194.159 83.4999 200.572 117.402 186.372C151.305 172.172 125.649 195.304 136.644 190.037C147.64 184.769 170.547 182.936 170.547 182.936C170.547 182.936 182.013 182.201 188.186 178.319V144C185.815 148.309 185.877 152.619 171.017 157.691C169.04 158.366 166.99 158.814 164.924 159.125L142.142 162.552C142.142 162.552 140.997 167.82 135.957 169.652C130.918 171.485 121.526 171.943 114.425 168.736C107.323 165.53 107.323 160.605 114.425 157.055C121.526 153.505 131.147 154.135 135.957 156.139C140.768 158.143 142.142 162.552 142.142 162.552L164.924 159.125C166.99 158.814 169.04 158.366 171.017 157.691C185.877 152.619 185.815 148.309 188.186 144C189.927 135.353 190.371 131.026 190.477 124.532C190.596 117.198 190.152 107.73 188.186 97.9637C186.755 90.8574 184.729 87.409 181.313 81.0149C176.992 72.9239 174.67 68.2837 168.027 62.2339C162.559 57.2539 157.49 55.5918 151.992 52.1563C146.495 48.7208 130.921 47.3677 129.314 47.5756H97.4732C91.4813 49.0389 84.9556 49.5259 79.3768 52.1563C72.0601 55.6061 68.4283 58.9093 62.1964 64.0662C56.7905 68.5396 51.9924 74.8795 49.5243 78.4006C48.3199 80.1189 47.3423 81.9755 46.5266 83.9088C44.9908 87.5486 42.4172 93.8221 41.1218 97.9637C32.5776 125.281 37.6855 163.378 37.6855 172.997Z" fill="url(#paint3_linear_11_67)"/>
<path fill-rule="evenodd" clip-rule="evenodd" d="M92.9732 11.9531V43.9438C92.3348 44.0677 91.6895 44.1881 91.0274 44.3117C89.8739 44.5269 88.6696 44.7517 87.3629 45.0206C84.1778 45.6762 80.7354 46.5406 77.4577 48.086C70.3068 51.4576 66.2952 54.799 61.0663 59.1542C60.5027 59.6237 59.9249 60.1049 59.3275 60.5993C53.4401 65.4712 48.3616 72.2193 45.8394 75.8177C44.418 77.8454 43.2946 79.9932 42.3806 82.1594C40.8545 85.776 38.1966 92.2414 36.827 96.6204C32.3371 110.976 31.4891 127.907 31.7001 142.184C31.8062 149.366 32.1833 155.97 32.5303 161.347C32.6044 162.496 32.6762 163.577 32.7434 164.588C32.7625 164.877 32.7813 165.16 32.7997 165.437C32.6666 165.306 32.5344 165.172 32.4033 165.035C30.0184 162.544 28.8994 160.032 28.8994 158.658V84.0203C30.9105 74.8668 32.6578 69.7785 36.7158 61.1764C41.3012 51.4563 44.2645 46.2896 51.1548 38.3958C58.1791 30.3487 62.7305 26.3989 71.8291 20.9799C76.6826 18.0893 79.5389 16.8097 84.9412 14.6501C88.1408 13.371 90.3646 12.7114 92.9732 11.9531ZM21.0682 77.9516C22.9038 70.4912 24.8774 65.1769 28.5761 57.3365C33.392 47.1276 36.7739 41.1849 44.3745 32.4774C51.9615 23.7856 57.2318 19.1985 67.2238 13.2474C72.6139 10.0372 75.9316 8.55924 81.6004 6.29311C85.2953 4.81605 88.2419 3.95452 91.2876 3.06404C92.8272 2.61388 94.3922 2.15633 96.0919 1.60812L96.4734 1.48507L96.8707 1.43139C106.331 0.153193 107.597 0.151322 114.487 0.246082C120.486 0.328599 122.019 0.365432 129.835 1.42033C137.623 2.1858 141.761 3.35634 148.904 6.31398C154.197 8.50612 157.46 10.335 162.178 13.3054C171.859 19.3996 177.698 23.4576 185.425 32.5165C192.835 41.2051 196.054 47.2283 200.355 57.5216C202.396 62.4054 204.124 68.7666 205.321 73.7443C205.643 75.0831 205.931 76.3396 206.18 77.4635C207.47 77.2449 208.812 77.1448 210.119 77.1448C211.904 77.1448 213.76 77.3315 215.479 77.738C217.129 78.1284 218.995 78.8009 220.516 79.9956C221.762 80.9749 222.299 82.3323 222.513 82.9109C222.801 83.6909 223.012 84.5558 223.176 85.3955C223.508 87.0932 223.751 89.2245 223.93 91.5487C224.29 96.2291 224.427 102.163 224.383 108.017C224.34 113.876 224.115 119.763 223.735 124.359C223.546 126.643 223.31 128.704 223.019 130.315C222.876 131.109 222.698 131.916 222.463 132.633C222.346 132.99 222.184 133.423 221.955 133.861C221.756 134.241 221.341 134.955 220.585 135.573C219.262 136.655 217.564 137.323 216.086 137.741C214.509 138.187 212.731 138.473 210.939 138.56C209.85 138.613 208.62 138.598 207.346 138.453V158.658C207.346 161.256 206.514 163.997 205.453 166.429C204.36 168.933 202.869 171.463 201.205 173.729C199.551 175.982 197.626 178.111 195.608 179.727C194.053 180.971 191.974 182.291 189.622 182.695C185.965 184.721 181.44 185.843 178.018 186.481C178.286 186.962 178.557 187.461 178.825 187.971C179.917 190.048 181.034 192.444 181.79 194.799C182.494 196.993 183.125 199.86 182.482 202.539C181.902 204.955 180.124 206.41 178.808 207.221C177.418 208.078 175.757 208.704 174.124 209.199C170.84 210.193 166.601 210.957 162.336 211.68C161.549 211.813 160.757 211.946 159.963 212.078C156.338 212.685 152.667 213.299 149.178 214.039C144.896 214.947 141.231 215.979 138.567 217.238C136.917 218.018 135.53 218.589 134.352 218.928C133.254 219.244 131.752 219.539 130.176 219.106C128.394 218.616 127.418 217.455 126.983 216.873C126.7 216.862 126.253 216.87 125.591 216.94C123.229 217.193 119.057 218.148 111.752 220.635C104.401 223.139 99.6837 224.424 96.7663 224.726C95.9986 224.805 95.1884 224.837 94.3945 224.75C93.6393 224.667 92.5548 224.441 91.5259 223.732C90.3421 222.917 89.5757 221.696 89.3343 220.331C89.1256 219.151 89.3564 218.147 89.5374 217.561C89.6089 217.33 89.6935 217.102 89.7854 216.881C85.0602 215.99 77.945 214.494 71.0175 212.819C66.1768 211.649 61.3306 210.368 57.3825 209.117C55.4131 208.493 53.5969 207.854 52.087 207.216C50.7199 206.638 49.1173 205.867 47.9713 204.842C44.7331 201.945 45.4968 197.778 46.1584 195.625C46.9304 193.113 48.3893 190.506 49.7897 188.323C50.5759 187.097 51.3994 185.92 52.1784 184.86C51.3028 184.496 50.3608 184.1 49.3795 183.681C45.1718 181.88 39.9995 179.539 36.2777 177.393C34.425 177.124 32.6842 176.367 31.2224 175.517C29.3228 174.413 27.4938 172.922 25.9019 171.259C22.9036 168.127 19.8994 163.469 19.8994 158.658V137.623C18.9573 137.734 18.0207 137.793 17.0691 137.793C14.2655 137.793 11.5925 137.282 8.52555 136.424C6.80942 135.943 5.71809 134.792 5.09428 133.922C4.45358 133.027 4.01197 132.026 3.69093 131.115C3.04539 129.284 2.61352 127.02 2.3115 124.655C1.70006 119.867 1.51511 113.778 1.63184 107.81C1.74886 101.828 2.173 95.7806 2.83382 91.0466C3.16144 88.6995 3.5659 86.5363 4.06559 84.8219C4.312 83.9764 4.62669 83.0804 5.04752 82.2766C5.37116 81.6585 6.18302 80.2341 7.82291 79.4625C10.5676 78.1711 13.9762 77.6601 17.0691 77.6601C18.3705 77.6601 19.7279 77.7506 21.0682 77.9516ZM19.8994 128.529V86.8779C19.0488 86.7407 18.0903 86.6601 17.0691 86.6601C15.3922 86.6601 13.8845 86.8773 12.746 87.2059C12.733 87.2486 12.7197 87.2934 12.7061 87.3402C12.3826 88.4502 12.0497 90.1252 11.7474 92.2908C11.1484 96.5823 10.7421 102.259 10.6301 107.986C10.5178 113.728 10.7051 119.334 11.239 123.515C11.5056 125.602 11.8338 127.126 12.164 128.08C14.1818 128.587 15.6715 128.793 17.0691 128.793C17.9413 128.793 18.8494 128.713 19.8994 128.529ZM13.0207 86.4513C13.0576 86.3809 13.0556 86.4016 13.0067 86.4799C13.0125 86.4676 13.0172 86.4581 13.0207 86.4513ZM42.1103 170.34C45.189 171.994 49.2417 173.833 52.9196 175.406C55.171 176.369 57.2134 177.205 58.693 177.799C59.3481 178.062 59.8915 178.277 60.2925 178.435C60.5205 178.436 60.7901 178.436 61.0973 178.438C62.1499 178.443 63.6466 178.456 65.4328 178.491C68.9967 178.56 73.7497 178.712 78.4392 179.049C83.0608 179.381 87.8775 179.909 91.4494 180.79C93.1425 181.207 95.0822 181.823 96.5721 182.862C97.3385 183.397 98.3675 184.304 98.9484 185.73C99.3538 186.724 99.4465 187.736 99.3043 188.687C103.027 187.378 108.3 185.306 115.664 182.221C119.993 180.408 123.476 179.146 126.27 178.343C128.995 177.56 131.353 177.128 133.324 177.197C135.28 177.266 137.856 177.904 139.338 180.346C140.058 181.534 140.264 182.763 140.258 183.813C145.629 182.082 151.843 180.88 157.02 180.066C160.657 179.494 163.936 179.091 166.306 178.832C167.492 178.702 168.454 178.607 169.124 178.545C169.269 178.531 169.401 178.519 169.518 178.509C169.67 178.495 169.798 178.484 169.9 178.475C169.94 178.471 169.975 178.468 170.007 178.466C170.047 178.462 170.081 178.459 170.109 178.457L170.165 178.453L170.181 178.451L170.186 178.451L170.187 178.451C170.188 178.451 170.188 178.451 170.547 182.936L170.188 178.451L170.224 178.448L170.256 178.446L170.257 178.446L170.259 178.446L170.27 178.445L170.345 178.439C170.415 178.434 170.525 178.426 170.67 178.413C170.962 178.389 171.396 178.348 171.94 178.288C173.032 178.167 174.548 177.968 176.238 177.658C178.837 177.179 181.522 176.492 183.686 175.581V156.826C180.977 158.599 177.375 160.276 172.471 161.95C170.175 162.733 167.851 163.236 165.593 163.575L145.405 166.612C145.232 166.962 145.035 167.331 144.811 167.709C143.545 169.845 141.282 172.505 137.495 173.881C134.349 175.025 130.177 175.647 125.897 175.583C121.599 175.52 116.831 174.76 112.573 172.837C108.647 171.065 104.599 167.911 104.599 163.024C104.599 158.231 108.527 154.972 112.412 153.03C116.741 150.866 121.643 150.055 126.009 150.015C130.345 149.975 134.587 150.693 137.688 151.985C141.068 153.393 143.238 155.652 144.543 157.52C144.568 157.557 144.593 157.593 144.618 157.629L164.255 154.675C166.129 154.393 167.905 153.998 169.564 153.432C176.703 150.995 179.611 148.945 181.023 147.459C181.71 146.737 182.159 146.027 182.59 145.187C182.79 144.799 182.969 144.417 183.187 143.952C183.225 143.871 183.265 143.788 183.305 143.701C183.48 143.33 183.678 142.914 183.902 142.476C185.491 134.482 185.879 130.481 185.977 124.459C186.093 117.347 185.66 108.217 183.774 98.8519C182.576 92.9009 181.009 89.9765 178.001 84.3626C177.79 83.9675 177.571 83.559 177.344 83.1351C177.181 82.83 177.022 82.5308 176.865 82.2371C172.852 74.7163 170.774 70.8225 164.997 65.5608C162.613 63.3896 160.303 61.9223 157.834 60.5484C157.098 60.1392 156.292 59.7103 155.443 59.2587C153.603 58.2797 151.563 57.1943 149.608 55.9725C148.808 55.4724 147.321 54.8809 145.188 54.3078C143.138 53.757 140.796 53.3019 138.504 52.9464C136.221 52.5923 134.055 52.3472 132.379 52.2042C131.54 52.1325 130.849 52.0885 130.343 52.0681C129.967 52.053 129.796 52.0558 129.766 52.0547L129.604 52.0756H98.003C96.1535 52.5081 94.1595 52.8827 92.2892 53.234C91.1911 53.4403 90.1357 53.6386 89.1773 53.8359C86.2069 54.4472 83.597 55.1416 81.2959 56.2266C75.2175 59.0925 72.0239 61.7484 66.7777 66.1115C66.231 66.5661 65.6621 67.0393 65.0653 67.5331C60.1409 71.6081 55.6231 77.5397 53.2092 80.9835C52.2217 82.3923 51.3901 83.9578 50.6726 85.6582C49.1271 89.3211 46.6377 95.4028 45.4166 99.307C41.3624 112.269 40.4922 128.045 40.6991 142.051C40.8019 149.01 41.1678 155.441 41.5116 160.767C41.5785 161.803 41.6455 162.809 41.7099 163.776C41.8761 166.272 42.025 168.508 42.1103 170.34ZM133.814 43.2967C135.565 43.4602 137.675 43.7101 139.884 44.0528C142.374 44.4391 145.057 44.9535 147.523 45.6161C149.907 46.2565 152.428 47.1224 154.377 48.3401C156.08 49.4044 157.619 50.2209 159.287 51.1061C160.205 51.5934 161.163 52.1016 162.209 52.6834C165.015 54.2444 167.973 56.0982 171.057 58.907C177.997 65.2277 180.717 70.3293 184.686 77.7759C184.882 78.143 185.08 78.5158 185.283 78.8947C185.526 79.35 185.764 79.7932 185.996 80.2266C189.004 85.8314 191.131 89.7956 192.597 97.0754C194.645 107.243 195.099 117.048 194.976 124.605C194.867 131.299 194.4 135.86 192.686 144.447V170.008C193.11 169.507 193.534 168.97 193.95 168.402C195.265 166.612 196.407 164.656 197.204 162.829C198.033 160.931 198.346 159.496 198.346 158.658V83.9632C198.333 83.8947 198.318 83.8179 198.301 83.7331C198.219 83.314 198.096 82.7007 197.936 81.9346C197.616 80.401 197.151 78.2625 196.571 75.8488C195.394 70.9551 193.8 65.1774 192.051 60.9913C188.001 51.299 185.223 46.149 178.577 38.3568C171.706 30.3012 166.74 26.8118 157.383 20.9219C152.955 18.134 150.153 16.5726 145.46 14.6292C140.759 12.6823 137.743 11.6672 133.814 11.0015V43.2967ZM207.346 86.3995V129.341C208.134 129.523 209.191 129.635 210.502 129.571C211.659 129.515 212.759 129.329 213.637 129.081C213.821 129.028 213.983 128.977 214.123 128.929C214.136 128.862 214.149 128.791 214.163 128.715C214.379 127.518 214.586 125.785 214.765 123.617C215.122 119.309 215.341 113.658 215.384 107.951C215.426 102.238 215.291 96.5775 214.957 92.2397C214.788 90.0547 214.578 88.321 214.344 87.1236C214.317 86.9842 214.29 86.8588 214.265 86.7467C214.041 86.666 213.757 86.5792 213.407 86.4963C212.463 86.273 211.312 86.1448 210.119 86.1448C209.095 86.1448 208.138 86.2393 207.346 86.3995ZM214.072 86.0334C214.072 86.0345 214.072 86.0355 214.073 86.0365C214.018 85.9253 214.024 85.9046 214.072 86.0334ZM124.814 43.0756V9.84518C120.562 9.33048 118.899 9.30762 114.419 9.246L114.11 9.24175C108.967 9.17082 107.465 9.1501 101.973 9.83851V43.0756H124.814ZM137.249 162.797C137.222 162.757 137.194 162.716 137.165 162.674C136.58 161.837 135.657 160.889 134.227 160.293C132.517 159.581 129.543 158.982 126.091 159.014C122.669 159.046 119.209 159.694 116.437 161.08C114.995 161.801 114.198 162.456 113.812 162.896C113.78 162.932 113.752 162.965 113.728 162.996C113.734 163.002 113.74 163.009 113.747 163.016C114.095 163.396 114.853 163.992 116.276 164.635C119.119 165.918 122.597 166.533 126.031 166.584C129.483 166.635 132.526 166.112 134.42 165.423C135.673 164.968 136.502 164.077 137.068 163.121C137.134 163.011 137.194 162.902 137.249 162.797ZM113.573 163.226C113.57 163.236 113.567 163.241 113.567 163.24C113.567 163.24 113.569 163.236 113.573 163.226ZM168.268 187.673C167.963 187.705 167.635 187.74 167.286 187.778C165.017 188.027 161.882 188.412 158.418 188.956C151.323 190.072 143.434 191.773 138.589 194.095C137.797 194.474 137.004 194.808 136.245 195.028C135.626 195.209 134.381 195.518 132.995 195.183C132.195 194.99 131.292 194.567 130.536 193.766C129.788 192.974 129.435 192.079 129.284 191.347C129.021 190.073 129.301 188.96 129.426 188.504C129.592 187.896 129.86 187.217 130.109 186.633C129.703 186.731 129.253 186.85 128.755 186.993C126.419 187.664 123.288 188.786 119.141 190.523C110.645 194.081 104.688 196.398 100.589 197.76C98.5481 198.439 96.8501 198.92 95.4665 199.191C94.2916 199.42 92.5949 199.666 91.0008 199.177C90.0525 198.887 88.8835 198.255 88.0721 196.994C87.2804 195.764 87.1965 194.502 87.2692 193.656C87.394 192.206 88.0758 190.94 88.3975 190.355C88.5597 190.06 88.7435 189.748 88.9292 189.441C86.1514 188.8 82.1409 188.338 77.7941 188.026C73.3207 187.705 68.739 187.556 65.2591 187.489C63.7887 187.461 62.5216 187.447 61.5508 187.441C61.3913 187.638 61.2206 187.851 61.0409 188.079C59.9588 189.447 58.5885 191.275 57.365 193.182C56.1025 195.15 55.1704 196.938 54.7613 198.269C54.7335 198.359 54.7095 198.442 54.6887 198.518C54.921 198.632 55.2175 198.768 55.5894 198.925C56.7415 199.412 58.2666 199.956 60.1019 200.538C63.7633 201.698 68.3806 202.923 73.1323 204.071C82.6712 206.377 92.3616 208.286 95.3607 208.714C96.8546 208.928 99.5218 209.8 100.355 212.765C100.551 213.461 100.589 214.13 100.542 214.737C102.608 214.162 105.322 213.318 108.85 212.116C116.321 209.571 121.255 208.353 124.633 207.992C127.98 207.633 130.783 208.011 132.861 209.906C132.866 209.91 132.871 209.914 132.875 209.918C133.347 209.729 133.952 209.464 134.722 209.101C138.357 207.382 142.853 206.181 147.311 205.235C151.009 204.451 154.916 203.797 158.547 203.19C159.323 203.06 160.087 202.933 160.833 202.806C165.187 202.069 168.865 201.387 171.516 200.585C172.542 200.274 173.259 199.99 173.728 199.756C173.723 199.709 173.718 199.659 173.711 199.607C173.643 199.063 173.485 198.375 173.22 197.549C172.687 195.888 171.829 194.005 170.859 192.159C169.961 190.451 169.02 188.873 168.268 187.673ZM174.275 199.427C174.276 199.427 174.266 199.437 174.241 199.455C174.262 199.436 174.275 199.426 174.275 199.427ZM131.608 210.34C131.609 210.34 131.622 210.337 131.647 210.334C131.62 210.339 131.608 210.341 131.608 210.34ZM54.5662 199.226C54.5625 199.229 54.5587 199.197 54.5654 199.122C54.5731 199.186 54.5698 199.223 54.5662 199.226ZM131.271 183.619C131.273 183.617 131.271 183.643 131.26 183.701C131.263 183.649 131.269 183.62 131.271 183.619ZM133.732 186.386C133.662 186.407 133.673 186.397 133.751 186.381C133.744 186.383 133.738 186.385 133.732 186.386ZM91.7254 213.348C91.7297 213.346 91.7165 213.388 91.673 213.481C91.6993 213.397 91.7211 213.351 91.7254 213.348ZM127.396 216.918C127.396 216.919 127.382 216.916 127.358 216.908C127.385 216.914 127.397 216.918 127.396 216.918ZM66.8085 85.1616C61.7294 89.9726 58.1196 97.0739 55.3515 108.809L46.5919 106.743C49.5506 94.1997 53.7293 85.1539 60.6193 78.6276C67.4821 72.1269 76.5062 68.6346 88.012 66.052L89.9831 74.8335C79.0402 77.2897 71.9146 80.3249 66.8085 85.1616Z" fill="url(#paint4_angular_11_67)"/>
<path d="M202.846 132.09V83.5343C202.846 83.5343 199.993 68.3263 196.203 59.2565C192.028 49.2636 189.029 43.677 182.001 35.4366C174.702 26.8794 169.299 23.1057 159.781 17.1137C155.207 14.2345 152.175 12.5394 147.182 10.4716C140.366 7.64933 136.656 6.60743 129.314 5.89088V47.5756C130.921 47.3677 146.495 48.7208 151.992 52.1563C157.49 55.5918 162.559 57.2539 168.027 62.2339C174.67 68.2837 176.992 72.9239 181.313 81.0149C184.729 87.409 186.755 90.8574 188.186 97.9637C190.152 107.73 190.596 117.198 190.477 124.532C190.371 131.026 189.927 135.353 188.186 144V178.319C193.684 178.319 202.846 165.53 202.846 158.658V132.09Z" fill="url(#paint5_angular_11_67)"/>
<path d="M24.3994 158.658C24.3994 164.842 32.6459 172.997 37.6855 172.997C37.6855 163.378 32.5776 125.281 41.1218 97.9637C42.4172 93.8221 44.9908 87.5486 46.5266 83.9088C47.3423 81.9755 48.3199 80.1189 49.5243 78.4006C51.9924 74.8795 56.7905 68.5396 62.1964 64.0662C68.4283 58.9093 72.0601 55.6061 79.3768 52.1563C84.9556 49.5259 91.4813 49.0389 97.4732 47.5756V5.89088C91.9268 7.67977 88.6821 8.3084 83.2708 10.4716C77.7353 12.6845 74.6482 14.0633 69.5265 17.1137C59.9812 22.7987 55.0703 27.0671 47.7647 35.4366C40.5192 43.7372 37.3466 49.292 32.6459 59.2565C28.3737 68.3126 26.5268 73.7499 24.3994 83.5343V132.09V158.658Z" fill="url(#paint6_angular_11_67)"/>
<path d="M129.314 47.5756V5.89088C121.618 4.85103 120.277 4.82616 114.425 4.74567C107.772 4.65417 106.728 4.64037 97.4732 5.89088V47.5756H129.314Z" fill="url(#paint7_angular_11_67)"/>
<path d="M135.957 169.652C140.997 167.82 142.142 162.552 142.142 162.552C142.142 162.552 140.768 158.143 135.957 156.139C131.147 154.135 121.526 153.505 114.425 157.055C107.323 160.605 107.323 165.53 114.425 168.736C121.526 171.943 130.918 171.485 135.957 169.652Z" fill="url(#paint8_angular_11_67)"/>
<path fill-rule="evenodd" clip-rule="evenodd" d="M92.9732 11.9531V43.9438C92.3348 44.0677 91.6895 44.1881 91.0274 44.3117C89.8739 44.5269 88.6696 44.7517 87.3629 45.0206C84.1778 45.6762 80.7354 46.5406 77.4577 48.086C70.3068 51.4576 66.2952 54.799 61.0663 59.1542C60.5027 59.6237 59.9249 60.1049 59.3275 60.5993C53.4401 65.4712 48.3616 72.2193 45.8394 75.8177C44.418 77.8454 43.2946 79.9932 42.3806 82.1594C40.8545 85.776 38.1966 92.2414 36.827 96.6204C32.3371 110.976 31.4891 127.907 31.7001 142.184C31.8062 149.366 32.1833 155.97 32.5303 161.347C32.6044 162.496 32.6762 163.577 32.7434 164.588C32.7625 164.877 32.7813 165.16 32.7997 165.437C32.6666 165.306 32.5344 165.172 32.4033 165.035C30.0184 162.544 28.8994 160.032 28.8994 158.658V84.0203C30.9105 74.8668 32.6578 69.7785 36.7158 61.1764C41.3012 51.4563 44.2645 46.2896 51.1548 38.3958C58.1791 30.3487 62.7305 26.3989 71.8291 20.9799C76.6826 18.0893 79.5389 16.8097 84.9412 14.6501C88.1408 13.371 90.3646 12.7114 92.9732 11.9531ZM21.0682 77.9516C22.9038 70.4912 24.8774 65.1769 28.5761 57.3365C33.392 47.1276 36.7739 41.1849 44.3745 32.4774C51.9615 23.7856 57.2318 19.1985 67.2238 13.2474C72.6139 10.0372 75.9316 8.55924 81.6004 6.29311C85.2953 4.81605 88.2419 3.95452 91.2876 3.06404C92.8272 2.61388 94.3922 2.15633 96.0919 1.60812L96.4734 1.48507L96.8707 1.43139C106.331 0.153193 107.597 0.151322 114.487 0.246082C120.486 0.328599 122.019 0.365432 129.835 1.42033C137.623 2.1858 141.761 3.35634 148.904 6.31398C154.197 8.50612 157.46 10.335 162.178 13.3054C171.859 19.3996 177.698 23.4576 185.425 32.5165C192.835 41.2051 196.054 47.2283 200.355 57.5216C202.396 62.4054 204.124 68.7666 205.321 73.7443C205.643 75.0831 205.931 76.3396 206.18 77.4635C207.47 77.2449 208.812 77.1448 210.119 77.1448C211.904 77.1448 213.76 77.3315 215.479 77.738C217.129 78.1284 218.995 78.8009 220.516 79.9956C221.762 80.9749 222.299 82.3323 222.513 82.9109C222.801 83.6909 223.012 84.5558 223.176 85.3955C223.508 87.0932 223.751 89.2245 223.93 91.5487C224.29 96.2291 224.427 102.163 224.383 108.017C224.34 113.876 224.115 119.763 223.735 124.359C223.546 126.643 223.31 128.704 223.019 130.315C222.876 131.109 222.698 131.916 222.463 132.633C222.346 132.99 222.184 133.423 221.955 133.861C221.756 134.241 221.341 134.955 220.585 135.573C219.262 136.655 217.564 137.323 216.086 137.741C214.509 138.187 212.731 138.473 210.939 138.56C209.85 138.613 208.62 138.598 207.346 138.453V158.658C207.346 161.256 206.514 163.997 205.453 166.429C204.36 168.933 202.869 171.463 201.205 173.729C199.551 175.982 197.626 178.111 195.608 179.727C194.053 180.971 191.974 182.291 189.622 182.695C185.965 184.721 181.44 185.843 178.018 186.481C178.286 186.962 178.557 187.461 178.825 187.971C179.917 190.048 181.034 192.444 181.79 194.799C182.494 196.993 183.125 199.86 182.482 202.539C181.902 204.955 180.124 206.41 178.808 207.221C177.418 208.078 175.757 208.704 174.124 209.199C170.84 210.193 166.601 210.957 162.336 211.68C161.549 211.813 160.757 211.946 159.963 212.078C156.338 212.685 152.667 213.299 149.178 214.039C144.896 214.947 141.231 215.979 138.567 217.238C136.917 218.018 135.53 218.589 134.352 218.928C133.254 219.244 131.752 219.539 130.176 219.106C128.394 218.616 127.418 217.455 126.983 216.873C126.7 216.862 126.253 216.87 125.591 216.94C123.229 217.193 119.057 218.148 111.752 220.635C104.401 223.139 99.6837 224.424 96.7663 224.726C95.9986 224.805 95.1884 224.837 94.3945 224.75C93.6393 224.667 92.5548 224.441 91.5259 223.732C90.3421 222.917 89.5757 221.696 89.3343 220.331C89.1256 219.151 89.3564 218.147 89.5374 217.561C89.6089 217.33 89.6935 217.102 89.7854 216.881C85.0602 215.99 77.945 214.494 71.0175 212.819C66.1768 211.649 61.3306 210.368 57.3825 209.117C55.4131 208.493 53.5969 207.854 52.087 207.216C50.7199 206.638 49.1173 205.867 47.9713 204.842C44.7331 201.945 45.4968 197.778 46.1584 195.625C46.9304 193.113 48.3893 190.506 49.7897 188.323C50.5759 187.097 51.3994 185.92 52.1784 184.86C51.3028 184.496 50.3608 184.1 49.3795 183.681C45.1718 181.88 39.9995 179.539 36.2777 177.393C34.425 177.124 32.6842 176.367 31.2224 175.517C29.3228 174.413 27.4938 172.922 25.9019 171.259C22.9036 168.127 19.8994 163.469 19.8994 158.658V137.623C18.9573 137.734 18.0207 137.793 17.0691 137.793C14.2655 137.793 11.5925 137.282 8.52555 136.424C6.80942 135.943 5.71809 134.792 5.09428 133.922C4.45358 133.027 4.01197 132.026 3.69093 131.115C3.04539 129.284 2.61352 127.02 2.3115 124.655C1.70006 119.867 1.51511 113.778 1.63184 107.81C1.74886 101.828 2.173 95.7806 2.83382 91.0466C3.16144 88.6995 3.5659 86.5363 4.06559 84.8219C4.312 83.9764 4.62669 83.0804 5.04752 82.2766C5.37116 81.6585 6.18302 80.2341 7.82291 79.4625C10.5676 78.1711 13.9762 77.6601 17.0691 77.6601C18.3705 77.6601 19.7279 77.7506 21.0682 77.9516ZM19.8994 128.529V86.8779C19.0488 86.7407 18.0903 86.6601 17.0691 86.6601C15.3922 86.6601 13.8845 86.8773 12.746 87.2059C12.733 87.2486 12.7197 87.2934 12.7061 87.3402C12.3826 88.4502 12.0497 90.1252 11.7474 92.2908C11.1484 96.5823 10.7421 102.259 10.6301 107.986C10.5178 113.728 10.7051 119.334 11.239 123.515C11.5056 125.602 11.8338 127.126 12.164 128.08C14.1818 128.587 15.6715 128.793 17.0691 128.793C17.9413 128.793 18.8494 128.713 19.8994 128.529ZM13.0207 86.4513C13.0576 86.3809 13.0556 86.4016 13.0067 86.4799C13.0125 86.4676 13.0172 86.4581 13.0207 86.4513ZM42.1103 170.34C45.189 171.994 49.2417 173.833 52.9196 175.406C55.171 176.369 57.2134 177.205 58.693 177.799C59.3481 178.062 59.8915 178.277 60.2925 178.435C60.5205 178.436 60.7901 178.436 61.0973 178.438C62.1499 178.443 63.6466 178.456 65.4328 178.491C68.9967 178.56 73.7497 178.712 78.4392 179.049C83.0608 179.381 87.8775 179.909 91.4494 180.79C93.1425 181.207 95.0822 181.823 96.5721 182.862C97.3385 183.397 98.3675 184.304 98.9484 185.73C99.3538 186.724 99.4465 187.736 99.3043 188.687C103.027 187.378 108.3 185.306 115.664 182.221C119.993 180.408 123.476 179.146 126.27 178.343C128.995 177.56 131.353 177.128 133.324 177.197C135.28 177.266 137.856 177.904 139.338 180.346C140.058 181.534 140.264 182.763 140.258 183.813C145.629 182.082 151.843 180.88 157.02 180.066C160.657 179.494 163.936 179.091 166.306 178.832C167.492 178.702 168.454 178.607 169.124 178.545C169.269 178.531 169.401 178.519 169.518 178.509C169.67 178.495 169.798 178.484 169.9 178.475C169.94 178.471 169.975 178.468 170.007 178.466C170.047 178.462 170.081 178.459 170.109 178.457L170.165 178.453L170.181 178.451L170.186 178.451L170.187 178.451C170.188 178.451 170.188 178.451 170.547 182.936L170.188 178.451L170.224 178.448L170.256 178.446L170.257 178.446L170.259 178.446L170.27 178.445L170.345 178.439C170.415 178.434 170.525 178.426 170.67 178.413C170.962 178.389 171.396 178.348 171.94 178.288C173.032 178.167 174.548 177.968 176.238 177.658C178.837 177.179 181.522 176.492 183.686 175.581V156.826C180.977 158.599 177.375 160.276 172.471 161.95C170.175 162.733 167.851 163.236 165.593 163.575L145.405 166.612C145.232 166.962 145.035 167.331 144.811 167.709C143.545 169.845 141.282 172.505 137.495 173.881C134.349 175.025 130.177 175.647 125.897 175.583C121.599 175.52 116.831 174.76 112.573 172.837C108.647 171.065 104.599 167.911 104.599 163.024C104.599 158.231 108.527 154.972 112.412 153.03C116.741 150.866 121.643 150.055 126.009 150.015C130.345 149.975 134.587 150.693 137.688 151.985C141.068 153.393 143.238 155.652 144.543 157.52C144.568 157.557 144.593 157.593 144.618 157.629L164.255 154.675C166.129 154.393 167.905 153.998 169.564 153.432C176.703 150.995 179.611 148.945 181.023 147.459C181.71 146.737 182.159 146.027 182.59 145.187C182.79 144.799 182.969 144.417 183.187 143.952C183.225 143.871 183.265 143.788 183.305 143.701C183.48 143.33 183.678 142.914 183.902 142.476C185.491 134.482 185.879 130.481 185.977 124.459C186.093 117.347 185.66 108.217 183.774 98.8519C182.576 92.9009 181.009 89.9765 178.001 84.3626C177.79 83.9675 177.571 83.559 177.344 83.1351C177.181 82.83 177.022 82.5308 176.865 82.2371C172.852 74.7163 170.774 70.8225 164.997 65.5608C162.613 63.3896 160.303 61.9223 157.834 60.5484C157.098 60.1392 156.292 59.7103 155.443 59.2587C153.603 58.2797 151.563 57.1943 149.608 55.9725C148.808 55.4724 147.321 54.8809 145.188 54.3078C143.138 53.757 140.796 53.3019 138.504 52.9464C136.221 52.5923 134.055 52.3472 132.379 52.2042C131.54 52.1325 130.849 52.0885 130.343 52.0681C129.967 52.053 129.796 52.0558 129.766 52.0547L129.604 52.0756H98.003C96.1535 52.5081 94.1595 52.8827 92.2892 53.234C91.1911 53.4403 90.1357 53.6386 89.1773 53.8359C86.2069 54.4472 83.597 55.1416 81.2959 56.2266C75.2175 59.0925 72.0239 61.7484 66.7777 66.1115C66.231 66.5661 65.6621 67.0393 65.0653 67.5331C60.1409 71.6081 55.6231 77.5397 53.2092 80.9835C52.2217 82.3923 51.3901 83.9578 50.6726 85.6582C49.1271 89.3211 46.6377 95.4028 45.4166 99.307C41.3624 112.269 40.4922 128.045 40.6991 142.051C40.8019 149.01 41.1678 155.441 41.5116 160.767C41.5785 161.803 41.6455 162.809 41.7099 163.776C41.8761 166.272 42.025 168.508 42.1103 170.34ZM133.814 43.2967C135.565 43.4602 137.675 43.7101 139.884 44.0528C142.374 44.4391 145.057 44.9535 147.523 45.6161C149.907 46.2565 152.428 47.1224 154.377 48.3401C156.08 49.4044 157.619 50.2209 159.287 51.1061C160.205 51.5934 161.163 52.1016 162.209 52.6834C165.015 54.2444 167.973 56.0982 171.057 58.907C177.997 65.2277 180.717 70.3293 184.686 77.7759C184.882 78.143 185.08 78.5158 185.283 78.8947C185.526 79.35 185.764 79.7932 185.996 80.2266C189.004 85.8314 191.131 89.7956 192.597 97.0754C194.645 107.243 195.099 117.048 194.976 124.605C194.867 131.299 194.4 135.86 192.686 144.447V170.008C193.11 169.507 193.534 168.97 193.95 168.402C195.265 166.612 196.407 164.656 197.204 162.829C198.033 160.931 198.346 159.496 198.346 158.658V83.9632C198.333 83.8947 198.318 83.8179 198.301 83.7331C198.219 83.314 198.096 82.7007 197.936 81.9346C197.616 80.401 197.151 78.2625 196.571 75.8488C195.394 70.9551 193.8 65.1774 192.051 60.9913C188.001 51.299 185.223 46.149 178.577 38.3568C171.706 30.3012 166.74 26.8118 157.383 20.9219C152.955 18.134 150.153 16.5726 145.46 14.6292C140.759 12.6823 137.743 11.6672 133.814 11.0015V43.2967ZM207.346 86.3995V129.341C208.134 129.523 209.191 129.635 210.502 129.571C211.659 129.515 212.759 129.329 213.637 129.081C213.821 129.028 213.983 128.977 214.123 128.929C214.136 128.862 214.149 128.791 214.163 128.715C214.379 127.518 214.586 125.785 214.765 123.617C215.122 119.309 215.341 113.658 215.384 107.951C215.426 102.238 215.291 96.5775 214.957 92.2397C214.788 90.0547 214.578 88.321 214.344 87.1236C214.317 86.9842 214.29 86.8588 214.265 86.7467C214.041 86.666 213.757 86.5792 213.407 86.4963C212.463 86.273 211.312 86.1448 210.119 86.1448C209.095 86.1448 208.138 86.2393 207.346 86.3995ZM214.072 86.0334C214.072 86.0345 214.072 86.0355 214.073 86.0365C214.018 85.9253 214.024 85.9046 214.072 86.0334ZM124.814 43.0756V9.84518C120.562 9.33048 118.899 9.30762 114.419 9.246L114.11 9.24175C108.967 9.17082 107.465 9.1501 101.973 9.83851V43.0756H124.814ZM137.249 162.797C137.222 162.757 137.194 162.716 137.165 162.674C136.58 161.837 135.657 160.889 134.227 160.293C132.517 159.581 129.543 158.982 126.091 159.014C122.669 159.046 119.209 159.694 116.437 161.08C114.995 161.801 114.198 162.456 113.812 162.896C113.78 162.932 113.752 162.965 113.728 162.996C113.734 163.002 113.74 163.009 113.747 163.016C114.095 163.396 114.853 163.992 116.276 164.635C119.119 165.918 122.597 166.533 126.031 166.584C129.483 166.635 132.526 166.112 134.42 165.423C135.673 164.968 136.502 164.077 137.068 163.121C137.134 163.011 137.194 162.902 137.249 162.797ZM113.573 163.226C113.57 163.236 113.567 163.241 113.567 163.24C113.567 163.24 113.569 163.236 113.573 163.226ZM168.268 187.673C167.963 187.705 167.635 187.74 167.286 187.778C165.017 188.027 161.882 188.412 158.418 188.956C151.323 190.072 143.434 191.773 138.589 194.095C137.797 194.474 137.004 194.808 136.245 195.028C135.626 195.209 134.381 195.518 132.995 195.183C132.195 194.99 131.292 194.567 130.536 193.766C129.788 192.974 129.435 192.079 129.284 191.347C129.021 190.073 129.301 188.96 129.426 188.504C129.592 187.896 129.86 187.217 130.109 186.633C129.703 186.731 129.253 186.85 128.755 186.993C126.419 187.664 123.288 188.786 119.141 190.523C110.645 194.081 104.688 196.398 100.589 197.76C98.5481 198.439 96.8501 198.92 95.4665 199.191C94.2916 199.42 92.5949 199.666 91.0008 199.177C90.0525 198.887 88.8835 198.255 88.0721 196.994C87.2804 195.764 87.1965 194.502 87.2692 193.656C87.394 192.206 88.0758 190.94 88.3975 190.355C88.5597 190.06 88.7435 189.748 88.9292 189.441C86.1514 188.8 82.1409 188.338 77.7941 188.026C73.3207 187.705 68.739 187.556 65.2591 187.489C63.7887 187.461 62.5216 187.447 61.5508 187.441C61.3913 187.638 61.2206 187.851 61.0409 188.079C59.9588 189.447 58.5885 191.275 57.365 193.182C56.1025 195.15 55.1704 196.938 54.7613 198.269C54.7335 198.359 54.7095 198.442 54.6887 198.518C54.921 198.632 55.2175 198.768 55.5894 198.925C56.7415 199.412 58.2666 199.956 60.1019 200.538C63.7633 201.698 68.3806 202.923 73.1323 204.071C82.6712 206.377 92.3616 208.286 95.3607 208.714C96.8546 208.928 99.5218 209.8 100.355 212.765C100.551 213.461 100.589 214.13 100.542 214.737C102.608 214.162 105.322 213.318 108.85 212.116C116.321 209.571 121.255 208.353 124.633 207.992C127.98 207.633 130.783 208.011 132.861 209.906C132.866 209.91 132.871 209.914 132.875 209.918C133.347 209.729 133.952 209.464 134.722 209.101C138.357 207.382 142.853 206.181 147.311 205.235C151.009 204.451 154.916 203.797 158.547 203.19C159.323 203.06 160.087 202.933 160.833 202.806C165.187 202.069 168.865 201.387 171.516 200.585C172.542 200.274 173.259 199.99 173.728 199.756C173.723 199.709 173.718 199.659 173.711 199.607C173.643 199.063 173.485 198.375 173.22 197.549C172.687 195.888 171.829 194.005 170.859 192.159C169.961 190.451 169.02 188.873 168.268 187.673ZM174.275 199.427C174.276 199.427 174.266 199.437 174.241 199.455C174.262 199.436 174.275 199.426 174.275 199.427ZM131.608 210.34C131.609 210.34 131.622 210.337 131.647 210.334C131.62 210.339 131.608 210.341 131.608 210.34ZM54.5662 199.226C54.5625 199.229 54.5587 199.197 54.5654 199.122C54.5731 199.186 54.5698 199.223 54.5662 199.226ZM131.271 183.619C131.273 183.617 131.271 183.643 131.26 183.701C131.263 183.649 131.269 183.62 131.271 183.619ZM133.732 186.386C133.662 186.407 133.673 186.397 133.751 186.381C133.744 186.383 133.738 186.385 133.732 186.386ZM91.7254 213.348C91.7297 213.346 91.7165 213.388 91.673 213.481C91.6993 213.397 91.7211 213.351 91.7254 213.348ZM127.396 216.918C127.396 216.919 127.382 216.916 127.358 216.908C127.385 216.914 127.397 216.918 127.396 216.918ZM66.8085 85.1616C61.7294 89.9726 58.1196 97.0739 55.3515 108.809L46.5919 106.743C49.5506 94.1997 53.7293 85.1539 60.6193 78.6276C67.4821 72.1269 76.5062 68.6346 88.012 66.052L89.9831 74.8335C79.0402 77.2897 71.9146 80.3249 66.8085 85.1616Z" fill="url(#paint9_angular_11_67)"/>
<defs>
<radialGradient id="paint0_radial_11_67" cx="0" cy="0" r="1" gradientUnits="userSpaceOnUse" gradientTransform="translate(112.102 112.508) rotate(90.1092) scale(107.796 106.896)">
<stop offset="0.703789" stop-color="#E64D22"/>
<stop offset="1" stop-color="#272A39"/>
</radialGradient>
<radialGradient id="paint1_radial_11_67" cx="0" cy="0" r="1" gradientUnits="userSpaceOnUse" gradientTransform="translate(112.102 112.508) rotate(90.1092) scale(107.796 106.896)">
<stop offset="0.703789" stop-color="#E64D22"/>
<stop offset="1" stop-color="#272A39"/>
</radialGradient>
<radialGradient id="paint2_radial_11_67" cx="0" cy="0" r="1" gradientUnits="userSpaceOnUse" gradientTransform="translate(112.102 112.508) rotate(90.1092) scale(107.796 106.896)">
<stop offset="0.703789" stop-color="#E64D22"/>
<stop offset="1" stop-color="#272A39"/>
</radialGradient>
<linearGradient id="paint3_linear_11_67" x1="112.995" y1="4.7092" x2="112.995" y2="220.302" gradientUnits="userSpaceOnUse">
<stop offset="0.354167" stop-color="#C4C4C4"/>
<stop offset="1" stop-color="#C4C4C4" stop-opacity="0"/>
</linearGradient>
<radialGradient id="paint4_angular_11_67" cx="0" cy="0" r="1" gradientUnits="userSpaceOnUse" gradientTransform="translate(113.22 109.58) rotate(90.1164) scale(110.722 109.798)">
<stop offset="0.328538"/>
<stop offset="1" stop-color="#272A39"/>
</radialGradient>
<radialGradient id="paint5_angular_11_67" cx="0" cy="0" r="1" gradientUnits="userSpaceOnUse" gradientTransform="translate(112.995 112.506) rotate(90) scale(107.796 106.896)">
<stop offset="0.296875" stop-color="#E64D22"/>
<stop offset="1" stop-color="#272A39"/>
</radialGradient>
<radialGradient id="paint6_angular_11_67" cx="0" cy="0" r="1" gradientUnits="userSpaceOnUse" gradientTransform="translate(112.995 112.506) rotate(90) scale(107.796 106.896)">
<stop offset="0.296875" stop-color="#E64D22"/>
<stop offset="1" stop-color="#272A39"/>
</radialGradient>
<radialGradient id="paint7_angular_11_67" cx="0" cy="0" r="1" gradientUnits="userSpaceOnUse" gradientTransform="translate(112.995 112.506) rotate(90) scale(107.796 106.896)">
<stop offset="0.296875" stop-color="#E64D22"/>
<stop offset="1" stop-color="#272A39"/>
</radialGradient>
<radialGradient id="paint8_angular_11_67" cx="0" cy="0" r="1" gradientUnits="userSpaceOnUse" gradientTransform="translate(112.995 112.506) rotate(90) scale(107.796 106.896)">
<stop offset="0.296875" stop-color="#E64D22"/>
<stop offset="1" stop-color="#272A39"/>
</radialGradient>
<radialGradient id="paint9_angular_11_67" cx="0" cy="0" r="1" gradientUnits="userSpaceOnUse" gradientTransform="translate(113.22 109.58) rotate(90.1164) scale(110.722 109.798)">
<stop offset="0.328538"/>
<stop offset="1" stop-color="#272A39"/>
</radialGradient>
</defs>
</svg>
